PathFileType	4	(X/Y/Z)	RUN4																																																													
DataRate	CameraRate	NumFrames	NumMarkers	Units	OrigDataRate	OrigDataStartFrame	OrigNumFrames																																																									
72	72	12	21	mm	72	321	854																																																									
Frame#	Time	Hand_Start			Hand_Thumb1			Hand_Thumb2			Hand_Thumb3			Hand_Index1			Hand_Index2			Hand_Index3			Hand_Middle1			Hand_Middle2			Hand_Middle3			Hand_Ring1			Hand_Ring2			Hand_Ring3			Hand_Pinky1			Hand_Pinky2			Hand_Pinky3			Hand_ThumbTip			Hand_IndexTip			Hand_MiddleTip			Hand_RingTip			Hand_PinkyTip		
		X1	Y1	Z1	X2	Y2	Z2	X3	Y3	Z3	X4	Y4	Z4	X5	Y5	Z5	X6	Y6	Z6	X7	Y7	Z7	X8	Y8	Z8	X9	Y9	Z9	X10	Y10	Z10	X11	Y11	Z11	X12	Y12	Z12	X13	Y13	Z13	X14	Y14	Z14	X15	Y15	Z15	X16	Y16	Z16	X17	Y17	Z17	X18	Y18	Z18	X19	Y19	Z19	X20	Y20	Z20	X21	Y21	Z21
																																																																
321	4.444444444	110.7068	-122.1358	-691.8218	73.77584	-103.592	-722.5711	48.90185	-104.1723	-744.7928	30.06992	-106.3628	-773.8234	81.08637	-67.30902	-772.1856	52.03859	-76.77609	-796.289	32.03947	-91.51107	-798.4661	96.85985	-81.84129	-780.2835	60.21843	-97.35906	-799.1659	56.86275	-110.0031	-774.1083	104.3457	-101.7198	-782.3223	69.09475	-117.148	-793.2889	64.50499	-123.9073	-767.2766	108.646	-123.6468	-780.5479	79.06703	-131.0406	-788.5449	75.30371	-132.8399	-768.1261	14.00531	-108.8982	-793.1546	14.96161	-106.8716	-798.7934	73.5305	-102.6123	-756.0763	82.28713	-115.1631	-752.0086	90.40741	-124.9282	-753.4004
322	4.458333333	110.5162	-120.5231	-691.0124	73.67985	-101.3296	-721.4772	48.75369	-101.4622	-743.6477	30.00312	-103.3154	-772.7544	81.1895	-64.5031	-770.6576	52.20805	-73.3588	-795.0713	32.11685	-87.94698	-797.3858	96.87047	-79.02685	-778.9482	60.15112	-94.07857	-798.0548	56.74519	-106.9631	-773.1268	104.2347	-98.92288	-781.2428	68.86201	-114.0799	-792.196	64.30297	-121.0735	-766.2404	108.4026	-120.8963	-779.749	78.62456	-128.1708	-787.0892	75.14034	-130.1856	-766.6413	14.03488	-105.6483	-792.1905	14.96671	-103.2257	-797.7548	73.43431	-99.91857	-754.9764	82.05624	-112.6712	-750.7484	90.34202	-122.5265	-751.8829
323	4.472222222	110.3267	-118.9932	-690.1839	73.57633	-99.19268	-720.3645	48.59366	-98.92654	-742.47	29.85582	-100.4293	-771.605	81.26366	-61.8484	-769.1237	52.31572	-70.1198	-793.7806	32.13564	-84.56051	-796.2426	96.85594	-76.35981	-777.601	60.03645	-91.02285	-796.8174	56.69058	-104.0925	-771.9778	104.1049	-96.26824	-780.1421	68.61702	-111.1753	-791.065	64.07836	-118.3915	-765.1666	108.1487	-118.2814	-778.9168	78.23229	-125.4103	-785.825	74.83616	-127.6828	-765.3892	13.92568	-102.5406	-791.0978	14.91377	-99.75648	-796.6793	73.44261	-97.33379	-753.7768	81.76531	-110.345	-749.4123	89.98668	-120.3347	-750.4214
324	4.486111111	110.2428	-117.2323	-689.3166	73.56858	-97.16105	-719.4121	48.53179	-96.72982	-741.4535	29.80946	-98.19674	-770.6003	81.41367	-59.83293	-768.1573	52.47803	-67.85798	-792.9102	32.20626	-82.17651	-795.332	96.90534	-74.43005	-776.6715	59.96801	-88.9349	-795.7814	56.64705	-101.9098	-770.8887	104.0298	-94.37954	-779.2429	68.41658	-109.1369	-789.9594	63.95258	-116.2748	-764.0265	107.9417	-116.4181	-778.0458	77.90397	-123.4515	-784.511	74.62223	-125.7341	-764.0579	13.92128	-100.2975	-790.1286	14.90204	-97.28116	-795.6721	73.4368	-95.27367	-752.6775	81.62014	-108.3917	-748.1682	89.76912	-118.5187	-749.0219
325	4.5	110.2807	-115.4214	-688.1914	73.56951	-94.87173	-717.9165	48.38253	-94.17346	-739.7794	29.45111	-95.35697	-768.804	81.38395	-57.21065	-766.4103	52.25182	-65.02989	-790.9976	31.89413	-79.24691	-793.2932	96.72729	-71.84383	-775.1289	59.5595	-86.09638	-793.9801	56.53466	-99.05913	-769.0434	103.7018	-91.81973	-777.8982	67.9234	-106.3282	-788.402	63.60913	-113.5189	-762.4582	107.4718	-113.8928	-776.8967	77.42483	-120.5777	-783.6806	73.86414	-123.0666	-763.2982	13.45618	-97.28089	-788.2629	14.5101	-94.26138	-793.548	73.51575	-92.5906	-750.9496	81.29434	-105.9138	-746.4843	88.78865	-116.2147	-747.875
326	4.513888889	110.302	-111.713	-686.4491	73.61782	-91.12576	-716.1823	48.49873	-90.4074	-738.1225	29.72308	-91.55217	-767.2495	81.45867	-53.13185	-764.4106	52.54818	-60.95251	-789.2579	32.26952	-75.26103	-791.6805	96.90411	-67.63867	-773.1601	59.86217	-82.10012	-792.0995	57.00178	-95.03821	-767.1306	103.9812	-87.56444	-776.0287	68.29653	-102.2566	-786.5959	64.05271	-109.4964	-760.6542	107.8478	-109.626	-775.1535	77.86442	-116.4132	-782.1146	74.15939	-119.0406	-761.7751	13.91358	-93.52419	-786.8546	14.96313	-90.36317	-792.0259	73.92555	-88.48122	-749.0149	81.59774	-101.889	-744.5273	88.85799	-112.2492	-746.1101
327	4.527777778	110.1484	-108.7121	-684.8781	73.40142	-87.75187	-714.2738	48.14534	-86.72231	-736.0437	29.15583	-87.53866	-765.0428	81.16813	-49.60006	-762.3867	52.14043	-57.13636	-787.1852	31.77775	-71.33138	-789.5704	96.49687	-64.13579	-771.2924	59.27561	-78.44263	-789.9963	56.51687	-91.39884	-765.0253	103.4629	-84.08028	-774.2994	67.64071	-98.60438	-784.631	63.5712	-105.8875	-758.6735	107.2285	-106.1642	-773.5561	77.15188	-112.8178	-780.2386	73.64468	-115.4892	-759.8701	13.23245	-89.29551	-784.5761	14.39394	-86.34496	-789.8864	73.55168	-84.97542	-746.9659	81.21206	-98.43707	-742.578	88.49715	-108.8089	-744.3029
328	4.541666667	110.1582	-106.0167	-684.2144	73.18413	-85.06575	-713.3367	47.80891	-83.93589	-734.9627	28.63201	-84.54803	-763.8431	80.56736	-46.73108	-761.3589	51.66313	-54.26851	-786.3011	31.3906	-68.584	-788.7336	95.98428	-61.10671	-770.3714	58.82707	-75.76981	-788.9258	56.24547	-88.71964	-763.9328	103.0923	-80.98307	-773.4948	67.34195	-95.81819	-783.6317	63.49877	-103.1304	-757.6478	107.0241	-103.0418	-772.8718	76.94411	-109.9664	-779.2577	73.69602	-112.6824	-758.852	12.65496	-86.22536	-783.3396	14.10731	-83.71267	-789.0733	73.23265	-82.20389	-745.8614	81.07974	-95.59932	-741.5243	88.61849	-105.889	-743.4009
329	4.555555556	110.1337	-101.8833	-682.8654	72.78851	-80.92925	-711.512	47.29483	-79.6217	-732.9881	27.88419	-79.82382	-761.7179	79.52493	-42.01767	-759.16	50.55866	-49.6833	-783.9909	30.44024	-64.19614	-786.5315	95.06568	-56.10523	-768.4118	57.98966	-71.16935	-786.8069	55.6095	-84.3325	-761.9054	102.3871	-75.8594	-771.8056	66.77482	-90.99486	-781.984	63.09336	-98.60846	-756.0635	106.5742	-97.87729	-771.4661	76.61244	-104.9878	-778.1943	73.33201	-107.9438	-757.8274	11.78798	-81.26125	-781.1353	13.30769	-79.48938	-787.0758	72.51817	-77.83791	-743.7531	80.56976	-91.10203	-739.8154	88.17609	-101.1527	-742.2998
330	4.569444444	110.2745	-98.7145	-681.0024	72.78076	-78.19977	-709.7735	47.33394	-77.07956	-731.3156	27.91823	-77.37687	-760.0411	79.23491	-39.45914	-757.599	50.25549	-47.65329	-782.2449	30.27596	-62.36175	-784.7557	94.91123	-53.44948	-766.7691	57.9838	-69.04885	-785.0163	55.61604	-82.07789	-760.0431	102.4112	-73.15299	-770.0665	66.96512	-88.60579	-780.3481	63.21119	-96.15609	-754.4191	106.7921	-95.13125	-769.6246	76.99718	-102.4153	-776.8865	73.46584	-105.3014	-756.5514	11.81887	-78.88702	-779.4505	13.26235	-77.78475	-785.3658	72.37598	-75.38107	-741.8267	80.52152	-88.48038	-738.0728	88.12284	-98.32934	-740.9267
331	4.583333333	110.4272	-96.13013	-679.8065	72.9402	-76.015	-708.8664	47.58963	-75.12081	-730.5319	28.26692	-75.64425	-759.3172	79.38419	-37.63676	-756.9852	50.43809	-46.12392	-781.5709	30.50764	-60.89741	-784.0909	95.13696	-51.64611	-765.9937	58.31654	-67.61897	-784.1339	55.86194	-80.41155	-759.0472	102.7179	-71.34902	-769.1042	67.36775	-86.99119	-779.4293	63.50337	-94.35779	-753.4639	107.178	-93.30654	-768.465	77.48981	-100.691	-776.0553	73.76997	-103.4188	-755.7319	12.22785	-77.30901	-778.7637	13.52252	-76.34908	-784.7639	72.51723	-73.47304	-740.8251	80.68991	-86.5227	-737.0625	88.30184	-96.27366	-740.0687
332	4.597222222	110.4838	-94.09127	-678.3875	72.82742	-74.11942	-707.3231	47.38159	-73.28811	-728.8797	27.85171	-73.86658	-757.5233	78.99237	-36.0252	-755.7069	49.64484	-44.70769	-779.7424	29.65064	-59.43838	-781.9937	94.61767	-50.154	-764.7508	57.56918	-66.21584	-782.3399	55.28475	-78.78777	-757.1259	102.1015	-69.90543	-767.7875	66.62259	-85.45831	-777.8013	62.86327	-92.65366	-751.7726	106.4885	-91.87397	-767.0325	76.78587	-99.12255	-774.6971	73.0427	-101.6949	-754.3578	11.67325	-75.55947	-776.8517	12.58872	-74.80982	-782.553	72.11991	-71.74596	-739.1098	80.17076	-84.80015	-735.5077	87.64834	-94.5113	-738.7809
